<svg width="39" height="36" viewBox="0 0 39 36" fill="none" xmlns="http://www.w3.org/2000/svg">
<g clip-path="url(#clip0_116_563)">
<path d="M34.3311 3.05079H32.545V0.334839H29.5683V3.05079H9.92176V0.334839H6.94502V3.05079H5.15897C2.6969 3.05079 0.693848 4.87835 0.693848 7.12471V31.025C0.693848 33.2714 2.6969 35.099 5.15897 35.099H34.3311C36.7932 35.099 38.7962 33.2714 38.7962 31.025V7.12471C38.7962 4.87835 36.7932 3.05079 34.3311 3.05079ZM35.8195 31.025C35.8195 31.7738 35.1518 32.383 34.3311 32.383H5.15897C4.33828 32.383 3.67059 31.7738 3.67059 31.025V13.0998H35.8195V31.025ZM35.8195 10.3838H3.67059V7.12471C3.67059 6.37592 4.33828 5.76673 5.15897 5.76673H6.94502V8.48268H9.92176V5.76673H29.5683V8.48268H32.545V5.76673H34.3311C35.1518 5.76673 35.8195 6.37592 35.8195 7.12471V10.3838Z" fill="#F1C303"/>
<path d="M9.32636 15.9515H6.34961V18.6675H9.32636V15.9515Z" fill="#F1C303"/>
<path d="M15.28 15.9515H12.3032V18.6675H15.28V15.9515Z" fill="#F1C303"/>
<path d="M21.2336 15.9515H18.2568V18.6675H21.2336V15.9515Z" fill="#F1C303"/>
<path d="M27.1867 15.9515H24.21V18.6675H27.1867V15.9515Z" fill="#F1C303"/>
<path d="M33.1403 15.9515H30.1636V18.6675H33.1403V15.9515Z" fill="#F1C303"/>
<path d="M9.32636 21.3834H6.34961V24.0994H9.32636V21.3834Z" fill="#F1C303"/>
<path d="M15.28 21.3834H12.3032V24.0994H15.28V21.3834Z" fill="#F1C303"/>
<path d="M21.2336 21.3834H18.2568V24.0994H21.2336V21.3834Z" fill="#F1C303"/>
<path d="M27.1867 21.3834H24.21V24.0994H27.1867V21.3834Z" fill="#F1C303"/>
<path d="M9.32636 26.8153H6.34961V29.5313H9.32636V26.8153Z" fill="#F1C303"/>
<path d="M15.28 26.8153H12.3032V29.5313H15.28V26.8153Z" fill="#F1C303"/>
<path d="M21.2336 26.8153H18.2568V29.5313H21.2336V26.8153Z" fill="#F1C303"/>
<path d="M27.1867 26.8153H24.21V29.5313H27.1867V26.8153Z" fill="#F1C303"/>
<path d="M33.1403 21.3834H30.1636V24.0994H33.1403V21.3834Z" fill="#F1C303"/>
</g>
<defs>
<clipPath id="clip0_116_563">
<rect width="38.1024" height="34.7641" fill="white" transform="translate(0.693848 0.334839)"/>
</clipPath>
</defs>
</svg>
