<svg width="39" height="36" viewBox="0 0 39 36" fill="none" xmlns="http://www.w3.org/2000/svg">
<g clip-path="url(#clip0_116_556)">
<path d="M35.6354 23.3489C33.3026 23.3489 31.0121 23.0161 28.8415 22.3616C27.778 22.0306 26.4705 22.3343 25.8213 22.9425L21.5371 25.8933C16.5686 23.4735 13.5081 20.6821 10.8922 16.1829L14.0311 12.3759C14.8467 11.6328 15.1392 10.5473 14.7887 9.52884C14.0683 7.53805 13.7024 5.44922 13.7024 3.31991C13.7025 1.78169 12.3309 0.530273 10.6451 0.530273H3.64775C1.96192 0.530273 0.590332 1.78169 0.590332 3.31982C0.590332 20.9508 16.3113 35.2944 35.6354 35.2944C37.3212 35.2944 38.6928 34.043 38.6928 32.5048V26.1384C38.6927 24.6004 37.3211 23.3489 35.6354 23.3489Z" fill="#F1C303"/>
</g>
<defs>
<clipPath id="clip0_116_556">
<rect width="38.1024" height="34.7641" fill="white" transform="translate(0.590332 0.530273)"/>
</clipPath>
</defs>
</svg>
