<svg width="39" height="36" viewBox="0 0 39 36" fill="none" xmlns="http://www.w3.org/2000/svg">
<g clip-path="url(#clip0_116_614)">
<path d="M19.8608 0.334839C12.2518 0.334839 6.06152 5.98279 6.06152 12.925C6.06152 21.5405 18.4105 34.1886 18.9363 34.7229C19.4301 35.2247 20.2923 35.2238 20.7853 34.7229C21.311 34.1886 33.66 21.5405 33.66 12.925C33.6598 5.98279 27.4696 0.334839 19.8608 0.334839ZM19.8608 19.2595C16.0325 19.2595 12.9181 16.4179 12.9181 12.925C12.9181 9.43217 16.0326 6.59062 19.8608 6.59062C23.6889 6.59062 26.8033 9.43224 26.8033 12.9251C26.8033 16.4179 23.6889 19.2595 19.8608 19.2595Z" fill="#F1C303"/>
</g>
<defs>
<clipPath id="clip0_116_614">
<rect width="38.1024" height="34.7641" fill="white" transform="translate(0.80957 0.334839)"/>
</clipPath>
</defs>
</svg>
